<svg viewBox="0 0 417 417" xmlns="http://www.w3.org/2000/svg"><rect width="417" height="417" x="0" y="0" rx="60" ry="60" fill="#fff" paint-order="stroke fill markers"/><path d="M386.076 271.25h-50.944l6.19-61.567a6.622 6.622 0 0 0-6.586-7.283H323.7v-34.426h11.034a6.62 6.62 0 0 0 6.62-6.62v-22.95a6.62 6.62 0 0 0-13.24 0v16.33H323.7v-26.04c0-10.951-8.909-19.86-19.86-19.86-10.952 0-19.861 8.909-19.861 19.86V202.4h-11.034a6.62 6.62 0 0 0-6.586 7.283l6.19 61.568h-48.858l8.39-3.957a6.62 6.62 0 0 0 3.164-8.81l-55.352-117.39a6.622 6.622 0 0 0-8.81-3.164l-25.687 12.11v-1.954a6.62 6.62 0 0 0-6.62-6.62h-32.219v-5.269a6.62 6.62 0 0 0-6.62-6.62H61.1a6.62 6.62 0 0 0-6.62 6.62v135.054H31.087a6.62 6.62 0 0 0-6.62 6.62v23.838a6.62 6.62 0 0 0 6.62 6.62h354.988a6.62 6.62 0 0 0 6.62-6.62V277.87a6.62 6.62 0 0 0-6.62-6.62zM297.22 128.696c0-3.65 2.97-6.62 6.62-6.62s6.62 2.97 6.62 6.62V202.4h-13.24zm-16.954 86.946h47.15l-5.591 55.61h-35.968zm-109.524-62.912l49.705 105.414-23.153 10.917-49.705-105.413zm12.946 118.522h-38.291v-81.207zm-51.531-116.544V271.25h-25.599V154.707zm-64.437-11.89h25.598v128.434H67.72zM379.456 295.09H37.708V284.49h341.748z"/></svg>
